# xmcd CD database generated by RipIT
#
# Track frame offsets:
# 150
# 14104
# 34533
# 46959
# 61381
#
# Disc length: 1478 seconds
#
# Revision: 0
# Processed by: cddbd v1.5.2PL0 Copyright (c) Steve Scherf et al.
# Submitted via: RipIT 3.9.0 www.suwald.com/ripit/ripit.html on 2014-12-10 at 12:05
#
DISCID=3c05c405
DTITLE=Reverend Shine Snake Oil Co. - The Soap Box Ep
DYEAR=2010
DGENRE=
TTITLE0=Soap Box
TTITLE1=Heretic
TTITLE2=Nyhavn
TTITLE3=Birthday Suit
TTITLE4=Soap Box (Reprise)
EXTD=
EXTT0=
EXTT1=
EXTT2=
EXTT3=
EXTT4=
PLAYORDER=
